<?xml version="1.0" standalone="no"?>
<!DOCTYPE svg PUBLIC "-//W3C//DTD SVG 20010904//EN"
 "http://www.w3.org/TR/2001/REC-SVG-20010904/DTD/svg10.dtd">
<svg version="1.0" xmlns="http://www.w3.org/2000/svg"
 width="1020.000000pt" height="1020.000000pt" viewBox="0 0 1020.000000 1020.000000"
 preserveAspectRatio="xMidYMid meet">
<metadata>
Created by potrace 1.14, written by Peter Selinger 2001-2017
</metadata>
<g transform="translate(0.000000,1020.000000) scale(0.100000,-0.100000)"
fill="#000000" stroke="none">
<path d="M259 8342 c11 -26 31 -78 46 -117 15 -38 35 -88 45 -110 9 -22 21
-51 25 -65 4 -14 13 -38 21 -55 7 -16 36 -88 65 -160 28 -71 54 -134 57 -140
4 -5 7 -17 9 -25 1 -8 6 -23 11 -35 5 -11 14 -32 21 -47 6 -16 15 -38 21 -50
5 -13 19 -48 30 -78 11 -30 25 -65 30 -77 11 -26 19 -44 50 -123 11 -30 25
-64 30 -75 5 -11 23 -56 40 -100 17 -44 35 -89 40 -100 5 -11 57 -141 115
-290 59 -148 113 -283 120 -300 11 -27 25 -61 30 -75 1 -3 7 -18 14 -35 15
-39 22 -59 23 -65 0 -3 9 -23 21 -45 11 -22 19 -40 18 -40 -1 0 2 -11 7 -25
37 -92 156 -389 165 -410 6 -14 11 -27 12 -30 4 -11 19 -50 54 -135 20 -49 36
-92 36 -95 1 -3 11 -27 23 -54 12 -27 22 -51 22 -53 0 -5 204 -519 225 -568 7
-16 43 -106 80 -200 36 -93 70 -179 75 -190 5 -11 28 -67 50 -125 23 -58 48
-119 56 -137 8 -17 14 -35 14 -40 1 -4 9 -26 20 -48 11 -22 19 -47 20 -55 0
-9 4 -20 8 -25 5 -6 28 -59 52 -120 24 -60 49 -126 57 -145 28 -67 32 -75 65
-160 18 -47 32 -88 30 -92 -1 -5 3 -8 8 -8 6 0 10 -5 10 -12 0 -9 319 -816
365 -923 7 -16 18 -46 25 -65 7 -19 20 -53 30 -75 9 -22 59 -146 111 -277 l93
-236 547 0 546 -1 11 22 c6 12 53 121 103 242 50 121 96 231 102 245 5 14 11
30 13 35 2 8 47 117 110 265 9 19 20 45 25 58 18 44 28 68 62 149 19 45 32 84
29 87 -3 3 -1 6 5 6 6 0 14 12 18 28 3 15 13 41 20 57 25 55 105 246 105 251
0 2 9 23 19 47 44 96 91 214 91 225 0 7 4 12 8 12 5 0 9 6 9 13 0 6 14 46 32
87 43 98 61 141 70 165 18 44 28 70 31 80 2 6 19 44 38 85 19 41 35 82 37 90
2 8 22 58 45 110 22 52 44 104 49 115 5 11 20 47 34 80 13 33 37 91 52 128
l28 68 29 -68 c16 -37 36 -83 44 -102 9 -18 17 -40 18 -47 1 -8 8 -20 14 -26
7 -7 12 -19 12 -28 0 -9 3 -20 8 -24 4 -4 7 -11 8 -14 0 -4 8 -24 17 -46 9
-21 17 -40 17 -41 0 -1 10 -24 22 -51 12 -27 23 -51 23 -54 0 -3 11 -27 24
-55 12 -27 28 -67 34 -87 7 -21 15 -38 19 -38 5 0 8 -6 8 -12 0 -12 40 -111
113 -278 9 -19 31 -73 50 -120 19 -47 48 -116 65 -155 16 -38 71 -169 122
-290 50 -121 98 -234 106 -252 16 -36 60 -141 105 -253 17 -41 39 -93 49 -115
17 -40 28 -65 155 -370 37 -88 74 -174 82 -192 l15 -32 542 1 c299 0 547 3
552 6 11 8 104 241 104 260 0 6 4 12 9 12 5 0 12 11 15 25 3 13 11 37 18 52 6
15 12 30 13 33 5 15 18 47 26 65 4 11 49 124 99 250 50 127 97 244 105 260 7
17 25 59 38 95 14 36 31 79 38 95 7 17 13 32 14 35 1 3 5 14 10 25 4 11 35 88
68 170 32 83 65 164 72 180 25 60 117 290 119 300 2 6 8 21 14 35 6 14 48 117
93 230 44 113 87 219 94 235 7 17 18 46 25 65 18 49 49 122 60 142 6 10 10 23
10 28 0 6 10 32 22 58 12 26 23 52 24 57 2 11 57 151 81 205 22 52 27 62 88
220 61 157 81 206 95 232 6 10 10 23 10 28 0 6 10 32 22 58 12 26 23 52 24 58
1 6 9 27 17 45 8 19 29 72 47 119 18 47 37 89 42 95 4 5 8 15 8 22 0 7 9 32
19 56 11 23 76 186 146 362 69 176 130 329 135 340 8 17 30 70 35 85 1 3 5 14
10 25 4 11 26 65 47 120 21 55 48 119 59 142 10 24 19 45 19 47 0 3 5 17 12
33 6 15 12 30 13 33 1 3 5 14 10 25 4 11 17 43 28 70 10 28 24 61 30 75 6 14
11 27 12 30 1 3 5 14 10 25 4 11 30 76 57 145 27 69 56 139 64 157 8 17 14 34
14 38 0 4 6 21 14 38 35 80 50 117 141 347 53 135 103 259 110 275 11 24 85
211 110 277 6 15 -46 16 -685 15 l-691 -2 -24 -60 c-14 -33 -24 -60 -23 -60 2
0 -66 -188 -144 -395 -22 -58 -40 -109 -41 -115 -3 -13 -76 -213 -88 -240 -5
-11 -42 -114 -84 -230 -41 -115 -80 -219 -85 -230 -5 -11 -18 -47 -29 -80 -11
-33 -25 -73 -32 -90 -7 -16 -13 -34 -15 -40 -5 -20 -43 -121 -58 -157 -9 -21
-13 -38 -10 -38 4 0 2 -6 -3 -12 -6 -7 -15 -26 -21 -43 -5 -16 -27 -75 -47
-130 -20 -55 -47 -129 -60 -165 -73 -204 -104 -288 -113 -310 -6 -14 -25 -65
-42 -115 -17 -49 -35 -99 -40 -110 -10 -24 -80 -216 -111 -305 -12 -36 -27
-71 -32 -77 -5 -7 -6 -13 -2 -13 4 0 3 -6 -3 -12 -5 -7 -15 -29 -20 -48 -6
-19 -25 -73 -43 -120 -17 -47 -40 -110 -50 -140 -11 -30 -23 -64 -28 -75 -5
-11 -17 -42 -27 -70 -10 -27 -22 -56 -27 -62 -5 -7 -7 -13 -3 -13 3 0 -3 -21
-13 -47 -10 -27 -42 -113 -71 -193 -28 -80 -58 -159 -66 -177 -8 -17 -14 -35
-14 -39 0 -4 -15 -49 -34 -99 -19 -49 -37 -99 -42 -110 -4 -11 -8 -24 -10 -30
-2 -5 -28 -77 -59 -160 -31 -82 -58 -157 -60 -165 -2 -8 -9 -28 -16 -45 -6
-16 -13 -34 -15 -40 -1 -5 -15 -41 -29 -80 -52 -139 -96 -260 -99 -272 -1 -7
-5 -16 -9 -19 -4 -4 -7 -16 -7 -26 0 -34 -18 -9 -45 65 -15 39 -32 76 -36 82
-5 5 -9 16 -9 25 0 9 -12 41 -26 71 -15 30 -27 59 -29 64 -1 6 -6 19 -10 30
-4 11 -127 319 -272 685 -146 366 -271 679 -278 695 -7 17 -17 42 -20 58 -4
15 -11 27 -16 27 -5 0 -8 3 -7 8 2 7 -52 152 -79 212 -17 36 -13 56 30 160 5
14 11 30 13 35 2 6 35 93 74 195 39 102 76 199 82 215 5 17 12 37 16 45 3 8 6
17 7 20 1 3 5 12 8 20 13 30 109 285 112 295 2 10 13 38 37 93 7 15 13 32 13
37 1 6 7 24 14 40 6 17 24 62 38 100 14 39 30 76 36 83 5 6 7 12 4 12 -4 0 2
20 13 44 10 24 16 47 13 50 -4 3 -2 6 4 6 6 0 13 13 16 29 4 16 15 49 25 73
23 51 192 497 196 515 1 7 5 16 9 19 4 4 7 16 7 26 0 10 5 18 12 18 6 0 9 2 6
5 -3 3 10 47 29 98 19 51 52 139 74 197 21 58 43 114 49 125 5 11 21 56 36
100 15 44 33 89 40 100 7 11 13 24 12 28 0 11 34 102 53 139 5 10 9 26 9 36 0
10 5 23 12 30 7 7 8 12 2 12 -5 0 -2 5 6 10 12 8 12 10 -5 10 -22 1 -1121 1
-1146 1 -11 -1 -27 -32 -52 -103 -20 -57 -68 -195 -107 -308 -40 -113 -73
-209 -74 -215 -2 -5 -6 -17 -9 -25 -12 -30 -59 -166 -74 -215 -8 -27 -20 -56
-25 -62 -6 -7 -7 -13 -2 -13 4 0 3 -5 -4 -12 -7 -7 -12 -20 -12 -31 0 -10 -5
-28 -12 -40 -7 -12 -13 -26 -14 -32 -2 -12 -111 -330 -123 -360 -5 -11 -30
-83 -56 -160 -26 -77 -52 -146 -58 -152 -5 -7 -7 -13 -4 -13 3 0 -5 -30 -19
-67 -14 -38 -27 -75 -29 -83 -2 -8 -4 -16 -5 -17 -2 -2 -3 -6 -5 -10 -1 -5 -5
-17 -9 -28 -4 -11 -12 -31 -16 -45 -4 -14 -11 -34 -16 -45 -4 -11 -8 -24 -10
-30 -9 -29 -31 -85 -36 -90 -2 -3 -21 43 -41 102 -19 60 -68 200 -107 313 -39
113 -87 252 -106 310 -19 58 -37 112 -40 120 -22 53 -121 350 -117 350 3 0 0
6 -6 13 -6 8 -24 54 -40 103 -16 49 -72 213 -124 364 -52 151 -98 283 -101
293 -3 9 -9 25 -13 35 -8 21 -6 16 -29 89 -18 61 -20 63 -54 64 -179 3 -1142
0 -1146 -4 -3 -2 5 -29 17 -58 11 -30 22 -58 24 -64 3 -12 14 -44 25 -70 5
-11 21 -51 35 -90 14 -38 35 -93 45 -120 11 -28 20 -54 20 -59 0 -4 6 -22 14
-39 24 -54 144 -370 149 -392 2 -5 12 -35 24 -65 12 -30 33 -86 48 -125 14
-38 32 -86 40 -105 8 -19 30 -80 50 -135 20 -55 47 -127 60 -160 65 -170 100
-261 102 -270 1 -5 97 -262 213 -570 116 -308 213 -564 214 -570 2 -5 8 -23
15 -40 7 -16 13 -37 13 -45 0 -12 -110 -304 -141 -375 -11 -24 -75 -188 -77
-195 0 -3 -4 -14 -9 -25 -5 -11 -44 -112 -87 -225 -44 -113 -85 -218 -92 -235
-7 -16 -19 -46 -26 -65 -7 -19 -18 -48 -25 -65 -14 -33 -69 -177 -71 -185 0
-3 -6 -18 -13 -35 -7 -16 -24 -59 -37 -95 -14 -36 -29 -74 -34 -85 -5 -11 -25
-63 -45 -115 -20 -52 -40 -104 -45 -115 -5 -11 -27 -67 -49 -125 -22 -58 -43
-113 -47 -123 -9 -24 -13 -14 -74 153 -15 41 -43 118 -62 170 -20 52 -79 214
-132 360 -53 146 -103 281 -111 300 -8 19 -41 112 -75 205 -34 94 -65 179 -70
190 -14 36 -37 99 -65 175 -14 41 -30 83 -36 92 -5 10 -9 25 -9 33 0 8 -4 23
-10 33 -10 17 -26 62 -115 307 -26 72 -53 146 -60 165 -16 41 -28 73 -30 80
-1 3 -4 12 -8 20 -3 8 -22 60 -42 115 -20 55 -45 123 -55 150 -68 180 -120
327 -120 338 0 7 -4 17 -8 23 -5 5 -23 50 -41 99 -42 115 -61 167 -159 435
-28 74 -78 212 -112 305 -34 94 -66 179 -70 190 -5 11 -32 85 -61 165 -28 80
-55 149 -60 155 -5 5 -9 19 -9 30 0 12 -3 25 -7 29 -5 4 -8 11 -8 14 -1 4 -9
30 -19 57 -11 28 -30 79 -43 115 -14 36 -33 89 -44 118 -41 113 -59 161 -99
267 -23 61 -43 115 -44 120 -1 6 -5 19 -9 31 l-7 21 -685 1 -684 0 18 -46z"/>
</g>
</svg>
